<svg xmlns="http://www.w3.org/2000/svg" width="700" height="394" viewBox="0 0 700 394"><path d="M 189 33.282 C 186.938 34.315, 186.341 35.602, 185.594 40.627 L 184.687 46.719 180.502 46.247 C 175.580 45.693, 169.870 48.764, 165.394 54.373 C 162.698 57.751, 162.608 57.781, 159.499 56.298 C 156.527 54.881, 156.039 54.947, 151.148 57.425 C 142.408 61.854, 136.579 71.115, 133.792 85 C 130.941 99.207, 130.656 102.160, 131.824 105.391 C 133.557 110.183, 133.297 111.924, 130.250 115.906 C 128.152 118.648, 127.318 121.160, 126.733 126.500 C 125.581 137.010, 125.755 139.110, 127.972 141.470 C 129.087 142.657, 130 144.464, 130 145.486 C 130 146.507, 130.622 148.053, 131.382 148.921 C 134.390 152.358, 134.190 154.570, 130.504 158.613 C 127.725 161.661, 127.096 163.039, 127.587 165 C 127.932 166.375, 128.431 170.079, 128.695 173.231 C 129.094 177.988, 128.821 179.412, 127.088 181.615 C 123.943 185.614, 124.386 189.392, 128.431 193.074 C 131.677 196.027, 132.387 199.746, 129.493 198.636 C 127.317 197.801, 126 200.246, 126 205.118 C 126 210.683, 125.266 213, 123.504 213 C 121.813 213, 120.712 219.117, 121.863 222.127 C 122.362 223.432, 123.722 225.357, 124.885 226.405 C 126.203 227.592, 127 229.519, 127 231.520 C 127 238.118, 133.896 242.599, 136.827 237.906 C 138.031 235.977, 138.273 235.937, 139.896 237.406 C 141.991 239.302, 147.553 239.520, 148.673 237.750 C 149.108 237.063, 149.697 234.250, 149.982 231.500 C 150.436 227.116, 150.804 226.457, 152.972 226.151 C 154.331 225.960, 156.344 225.172, 157.444 224.401 C 158.545 223.631, 160.132 223.004, 160.973 223.009 C 162.525 223.019, 170 235.079, 170 237.574 C 170 239.435, 173.799 246.588, 175.565 248.054 C 176.354 248.709, 177 250.781, 177 252.658 C 177 255.973, 177.729 257.567, 182.692 265.100 C 184.588 267.978, 184.873 269.205, 184.109 271.214 C 183.583 272.596, 182.281 273.955, 181.215 274.234 C 179.295 274.736, 176 280.056, 176 282.654 C 176 284.356, 183.824 284.493, 187.423 282.853 C 189.348 281.976, 190.287 281.994, 191.412 282.927 C 192.468 283.804, 195.167 283.948, 200.989 283.441 L 209.095 282.733 211.068 278.867 C 212.153 276.740, 213.388 275, 213.814 275 C 214.239 275, 217.248 272.750, 220.500 270 C 223.752 267.250, 227.039 265, 227.803 265 C 228.568 265, 231.287 266.866, 233.847 269.147 C 236.406 271.428, 242.166 275.028, 246.647 277.147 C 253.676 280.471, 255.753 281, 261.772 281 C 273.437 281, 274.560 281.472, 276.897 287.361 C 278.019 290.187, 279.456 295.650, 280.091 299.500 C 280.726 303.350, 281.595 306.950, 282.021 307.500 C 282.448 308.050, 287.395 316.804, 293.014 326.953 C 310.778 359.036, 310.748 359, 319.603 359 C 325.626 359, 325.932 358.874, 328.855 355.183 C 331.107 352.339, 333.359 350.885, 337.689 349.479 C 344.888 347.141, 347.956 344.436, 351.990 336.868 C 353.723 333.616, 356.459 329.981, 358.070 328.790 C 360.604 326.917, 361 325.973, 361 321.812 C 361 318.318, 361.390 317, 362.423 317 C 363.205 317, 365.960 314.525, 368.544 311.500 L 373.243 306 382.871 306.044 C 388.710 306.071, 394.075 306.662, 396.500 307.547 C 399.818 308.758, 402.547 308.828, 412.500 307.957 C 433.335 306.135, 432.505 306.346, 435.261 302.182 C 439.481 295.805, 441.684 290.791, 443.908 282.500 C 447.113 270.552, 449.947 264, 451.910 264 C 453.040 264, 455.039 267.022, 458.029 273.250 C 460.471 278.337, 462.476 282.547, 462.485 282.605 C 462.493 282.662, 469.025 281.919, 477 280.952 C 488.120 279.605, 492.683 278.600, 496.577 276.642 C 502.302 273.762, 508.326 272.258, 511.922 272.812 C 513.347 273.031, 518.937 277.672, 525.506 284.092 C 531.646 290.091, 537.178 295, 537.799 295 C 538.421 295, 539.388 294.144, 539.948 293.098 C 540.508 292.051, 543.224 289.537, 545.985 287.511 C 550.170 284.439, 551.111 283.157, 551.649 279.796 C 552.003 277.579, 553.804 273.520, 555.650 270.777 C 557.964 267.339, 559.203 264.125, 559.636 260.438 C 560.233 255.363, 560.668 254.697, 568.132 247.433 C 575.615 240.152, 576 239.560, 576 235.356 C 576 232.925, 576.701 229.263, 577.557 227.218 C 578.558 224.828, 579.402 218.141, 579.921 208.500 L 580.728 193.500 572.755 185.369 C 565.372 177.840, 564.747 176.878, 564.320 172.369 C 564.067 169.691, 563.066 165.925, 562.097 164 C 561.127 162.075, 558.583 155.914, 556.442 150.310 L 552.550 140.119 540.025 135.474 C 533.136 132.919, 526.150 130.262, 524.500 129.569 C 522.850 128.877, 519.025 127.533, 516 126.583 C 510.508 124.858, 510.485 124.860, 500 127.786 C 494.225 129.398, 485.387 131.018, 480.360 131.386 L 471.219 132.055 457.860 125.916 C 427.404 111.922, 423 110.343, 423 113.417 C 423 114.196, 422.116 116.896, 421.036 119.417 L 419.071 124 400.468 124 C 383.223 124, 381.902 124.128, 382.376 125.750 C 382.656 126.712, 383.163 129.525, 383.502 132 C 384.045 135.973, 383.693 137.203, 380.498 142.500 C 378.507 145.800, 375.129 150.300, 372.992 152.500 C 369.457 156.139, 369.156 156.865, 369.657 160.541 C 370.081 163.653, 369.800 164.919, 368.440 166.041 C 366.808 167.389, 366.761 167.333, 367.836 165.316 C 371.136 159.123, 367.624 158.338, 361.064 163.802 C 358.554 165.893, 354.925 168.567, 353 169.745 C 351.075 170.923, 348.934 172.812, 348.242 173.943 C 347.549 175.074, 346.327 176, 345.526 176 C 344.725 176, 341.241 177.536, 337.784 179.413 C 334.328 181.290, 328.575 183.610, 325 184.569 C 321.425 185.529, 317.224 186.949, 315.664 187.727 C 314.105 188.504, 310.055 189.446, 306.664 189.820 C 301.188 190.424, 300.463 190.763, 300.167 192.854 C 299.841 195.156, 299.803 195.164, 298.446 193.226 C 297.130 191.348, 293.115 190.499, 281.750 189.695 C 280.238 189.588, 279 189.179, 279 188.787 C 279 187.906, 267.463 180, 266.177 180 C 265.664 180, 264.660 179.295, 263.946 178.434 C 262.811 177.067, 263.016 176.909, 265.573 177.184 C 268.335 177.482, 268.490 177.304, 268.328 174.026 C 268.234 172.115, 267.726 170.409, 267.200 170.233 C 266.674 170.058, 264.362 168.228, 262.062 166.167 L 257.879 162.419 259.940 160.555 C 261.073 159.529, 262 157.912, 262 156.962 C 262 156.011, 262.898 154.999, 263.995 154.712 C 266.937 153.942, 267.445 151.449, 265.624 146.712 C 263.115 140.187, 259.852 136.671, 256.395 136.770 C 254.145 136.834, 253.057 136.165, 251.773 133.927 C 249.998 130.834, 246.406 129.994, 244.237 132.163 C 243.353 133.047, 242.826 132.673, 242.041 130.608 C 241.090 128.107, 240.629 127.914, 236.254 128.195 C 231.695 128.487, 231.487 128.633, 231.187 131.750 C 230.818 135.568, 229.297 136.031, 228.432 132.587 C 228.099 131.259, 225.193 128.061, 221.974 125.479 C 218.754 122.897, 215.688 119.595, 215.159 118.142 C 214.630 116.689, 213.527 114.617, 212.707 113.538 C 211.429 111.856, 210.983 111.769, 209.584 112.930 C 208.686 113.675, 207.826 114.108, 207.673 113.893 C 207.520 113.677, 206.656 112.317, 205.754 110.872 C 204.637 109.083, 202.899 108.034, 200.307 107.585 C 187.431 105.357, 185.867 104.865, 187.068 103.418 C 187.715 102.638, 188.849 102, 189.587 102 C 192.651 102, 194.104 95.161, 191.500 93 C 189.242 91.126, 189.537 83.729, 191.956 81.540 C 193.108 80.498, 194.156 77.864, 194.504 75.135 C 194.830 72.586, 195.574 68.620, 196.158 66.323 C 197.018 62.936, 196.915 61.536, 195.610 58.919 C 194.724 57.145, 194 55.637, 194 55.570 C 194 55.502, 195.912 55.618, 198.250 55.826 C 202.805 56.232, 205.992 58, 202.169 58 C 199.576 58, 198.535 60.010, 199.381 63.383 C 200.844 69.210, 208.143 65.558, 208.804 58.668 C 209.550 50.910, 209.135 48.175, 206.609 44.173 C 205.174 41.900, 204 39.581, 204 39.020 C 204 38.459, 203.550 38, 203 38 C 202.450 38, 202 37.351, 202 36.557 C 202 32.754, 194.051 30.751, 189 33.282 M 189.348 35.765 C 188.714 36.169, 187.889 38.551, 187.513 41.057 C 186.762 46.076, 187.519 47.251, 192.235 48.377 C 194.027 48.805, 195.184 49.887, 195.593 51.515 C 196.133 53.667, 196.778 54, 200.408 54 C 202.714 54, 205.140 54.540, 205.800 55.200 C 208.227 57.627, 207.121 49.457, 204.500 45.595 C 203.125 43.569, 202 41.663, 202 41.360 C 202 41.057, 201.069 39.502, 199.932 37.904 C 198.285 35.591, 197.114 35.003, 194.182 35.015 C 192.157 35.024, 189.982 35.361, 189.348 35.765 M 173.750 50.178 C 171.688 51.396, 170 52.871, 170 53.456 C 170 54.041, 169.100 55.081, 168 55.768 C 166.900 56.455, 166 57.688, 166 58.508 C 166 60.404, 162.733 60.430, 159.123 58.563 C 156.554 57.235, 155.999 57.329, 151.762 59.813 C 143.675 64.555, 136.095 77.500, 136.025 86.691 C 136.011 88.446, 135.550 90.160, 135 90.500 C 134.450 90.840, 134 91.946, 134 92.959 C 134 94.325, 136.218 95.728, 142.600 98.400 C 147.330 100.380, 152.276 102, 153.592 102 C 156.705 102, 187 86.894, 187 85.342 C 187 84.688, 188.055 82.881, 189.344 81.327 C 192.662 77.326, 194.989 60.846, 192.577 58.434 C 191.699 57.557, 191.249 56.405, 191.577 55.876 C 192.514 54.359, 189.989 52, 187.427 52 C 186.147 52, 184.726 51.334, 184.271 50.519 C 182.812 47.914, 177.856 47.753, 173.750 50.178 M 209.223 65.557 C 208 66.413, 207 68.138, 207 69.390 C 207 72.602, 205.953 73.267, 203.868 71.381 C 201.065 68.844, 199.383 70.301, 195.554 78.589 C 191.309 87.777, 190.896 91.522, 194.223 90.652 C 197.232 89.865, 201.500 93.693, 199.841 95.691 C 198.946 96.770, 199.634 97.833, 203.104 100.738 C 209.059 105.722, 214.850 111.927, 216.302 114.881 C 218.464 119.276, 220.153 119.504, 225.217 116.086 C 228.338 113.980, 230.235 111.819, 231.001 109.496 C 232.288 105.597, 231.786 104.249, 228.595 103.036 C 227.219 102.513, 225.865 100.620, 225.007 98.020 C 223.769 94.270, 223.814 93.501, 225.447 90.469 C 226.447 88.612, 228.105 86.191, 229.133 85.088 C 230.160 83.986, 231 81.745, 231 80.108 C 231 77.606, 230.563 77.083, 228.250 76.816 C 225.841 76.539, 225.430 75.975, 224.935 72.269 C 224.625 69.941, 224.175 67.916, 223.935 67.769 C 217.228 63.630, 212.902 62.979, 209.223 65.557 M 210.750 67.080 C 209.736 67.671, 209 69.289, 209 70.927 C 209 74.915, 206.540 76.799, 204.153 74.638 C 202.062 72.746, 200 72.492, 200 74.126 C 200 74.746, 198.650 77.909, 197 81.156 C 195.350 84.403, 194 87.280, 194 87.549 C 194 87.818, 195.125 87.756, 196.500 87.411 C 198.439 86.924, 199 87.168, 199 88.498 C 199 89.441, 200.105 91.081, 201.454 92.143 C 202.886 93.269, 203.674 94.687, 203.344 95.545 C 202.983 96.487, 205.306 99.484, 209.787 103.861 C 213.642 107.624, 217.520 112.105, 218.405 113.817 L 220.015 116.930 223.757 114.395 C 227.467 111.883, 228.794 109.966, 228.930 106.923 C 228.982 105.744, 228.273 105.453, 226.118 105.769 C 223.019 106.224, 221.110 104.490, 222.824 102.776 C 223.557 102.043, 223.419 100.588, 222.365 97.953 C 220.991 94.520, 221.010 93.880, 222.576 90.840 C 223.522 89.003, 225.355 86.108, 226.648 84.406 C 229.027 81.276, 229.832 78.368, 228.008 79.495 C 226.249 80.582, 222 75.314, 222 72.045 C 222 70.125, 221.491 69, 220.622 69 C 219.865 69, 218.685 68.325, 218 67.500 C 216.573 65.781, 213.305 65.592, 210.750 67.080 M 172.500 95.211 C 154.196 104.501, 153.499 104.613, 142.927 99.950 C 138.292 97.906, 134.162 96.432, 133.750 96.676 C 132.510 97.407, 132.904 102.913, 134.403 105.813 C 138.034 112.834, 155.024 125, 161.198 125 C 162.654 125, 165.973 127.503, 170.566 132.066 L 177.680 139.132 183.821 132.816 C 187.199 129.342, 189.971 125.713, 189.981 124.750 C 189.991 123.787, 190.430 123, 190.956 123 C 191.481 123, 193.521 121.908, 195.489 120.572 C 197.456 119.237, 199.512 117.996, 200.056 117.815 C 200.601 117.633, 201.312 115.852, 201.636 113.858 C 202.217 110.278, 202.175 110.225, 198.362 109.696 C 196.238 109.402, 193.307 108.856, 191.848 108.483 C 189.878 107.979, 188.662 108.338, 187.121 109.879 C 184.633 112.367, 182 111.672, 182 108.528 C 182 105.805, 185.318 101.351, 187.975 100.508 C 190.673 99.652, 191.532 96.245, 189.590 94.100 C 188.716 93.133, 188 91.365, 188 90.171 C 188 88.977, 187.662 88.024, 187.250 88.052 C 186.838 88.081, 180.200 91.302, 172.500 95.211 M 135 112.362 C 135 113.112, 133.719 115.337, 132.152 117.308 C 129.674 120.427, 129.224 122.032, 128.684 129.684 C 128.075 138.316, 128.112 138.514, 130.700 140.578 C 132.376 141.915, 133.115 143.258, 132.728 144.267 C 132.393 145.140, 132.755 146.382, 133.533 147.027 C 134.311 147.673, 135.234 149.733, 135.586 151.605 C 136.250 155.145, 134.945 158.055, 130.866 162.134 C 129.359 163.641, 129.138 164.461, 129.968 165.461 C 130.573 166.191, 131.338 169.059, 131.667 171.834 C 132.139 175.824, 131.826 177.722, 130.169 180.901 L 128.073 184.922 134.786 181.281 C 143.164 176.738, 148.934 172.861, 151.405 170.116 C 152.673 168.708, 154.512 168, 156.905 167.999 C 159.961 167.998, 161.586 166.985, 167.738 161.249 C 174.545 154.902, 175.063 154.113, 176.431 148 L 177.885 141.500 170.216 133.750 C 165.069 128.549, 161.790 126, 160.245 126 C 156.617 126, 146.203 120.270, 141.020 115.422 C 135.974 110.702, 135 110.207, 135 112.362 M 203.082 114.177 C 203.006 117.562, 202.558 118.106, 197.424 121.044 C 194.357 122.798, 191.594 124.969, 191.285 125.867 C 190.975 126.765, 188.255 130.043, 185.241 133.151 C 182.226 136.259, 180.044 139.261, 180.391 139.824 C 180.739 140.386, 182.338 141.135, 183.946 141.488 C 185.782 141.891, 189.409 144.802, 193.699 149.315 C 202.099 158.152, 209.365 163, 214.210 163 C 217.122 163, 220.451 161.042, 233.122 151.879 C 252.525 137.847, 251.388 138.946, 249.892 135.662 C 248.617 132.864, 247.531 132.332, 246.500 134 C 246.160 134.550, 244.792 135, 243.460 135 C 241.711 135, 240.864 134.306, 240.411 132.500 C 239.896 130.448, 239.175 130, 236.392 130 C 233.322 130, 233 130.273, 233 132.878 C 233 136.032, 230.748 138.580, 228.945 137.466 C 228.317 137.078, 227.280 135.517, 226.642 133.999 C 226.003 132.480, 223.082 129.342, 220.150 127.024 C 217.218 124.706, 214.191 121.309, 213.424 119.473 C 211.860 115.730, 210.446 114.469, 209.510 115.984 C 208.274 117.984, 205.981 116.944, 204.584 113.750 L 203.163 110.500 203.082 114.177 M 422.795 120.214 L 420.207 126.500 413.103 126.143 C 407.620 125.868, 405.996 126.096, 405.984 127.143 C 405.975 127.890, 406.719 132.832, 407.636 138.126 L 409.305 147.753 412.730 145.732 C 415.840 143.897, 416.995 143.792, 425.327 144.592 C 430.372 145.077, 439.505 145.355, 445.622 145.210 L 456.744 144.947 458.423 151.724 C 459.347 155.451, 460.547 160.188, 461.090 162.251 L 462.078 166.002 465.039 163.813 L 468 161.624 467.975 147.062 L 467.950 132.500 447.921 123.500 C 436.905 118.550, 427.327 114.371, 426.637 114.214 C 425.919 114.049, 424.277 116.613, 422.795 120.214 M 385.100 128.214 C 385.155 129.471, 385.522 131.625, 385.915 133 C 386.364 134.566, 386.037 136.808, 385.041 139 C 383.032 143.420, 378.409 150.629, 377.041 151.475 C 375.048 152.706, 376.020 155.181, 378.927 156.278 C 381.948 157.419, 384 160.588, 384 164.113 C 384 165.223, 384.469 167.008, 385.042 168.078 C 385.864 169.615, 386.483 169.812, 387.976 169.013 C 389.017 168.456, 390.911 167.969, 392.184 167.932 C 393.892 167.882, 396.173 165.619, 400.876 159.309 C 404.382 154.604, 407.424 150.022, 407.635 149.127 C 407.845 148.232, 407.192 142.775, 406.183 137 L 404.349 126.500 394.675 126.214 C 385.155 125.932, 385.002 125.964, 385.100 128.214 M 501.177 129.488 C 497.149 130.766, 493.626 132.041, 493.347 132.320 C 493.067 132.599, 493.386 138.134, 494.055 144.619 C 494.899 152.812, 496.297 159.458, 498.635 166.401 C 501.459 174.787, 502 177.830, 502 185.333 L 502 194.274 511.664 193.565 C 520.385 192.924, 522.189 192.423, 530.144 188.428 C 534.993 185.992, 540 184, 541.272 184 C 542.690 184, 545.288 182.263, 547.995 179.505 C 550.421 177.033, 554.340 174.272, 556.703 173.369 C 559.983 172.117, 561 171.203, 561 169.508 C 561 167.103, 551.906 143.499, 550.412 142.024 C 549.187 140.816, 511.668 126.978, 509.896 127.081 C 509.128 127.126, 505.205 128.209, 501.177 129.488 M 489 132.626 C 488.175 132.768, 483.563 133.175, 478.750 133.532 L 470 134.180 470 148.531 C 470 157.020, 470.408 163.134, 471 163.500 C 471.587 163.863, 471.991 169.569, 471.978 177.309 C 471.958 188.759, 471.702 190.830, 470.036 192.998 C 468.136 195.471, 468.138 195.518, 470.233 197.748 C 472.081 199.715, 473.347 200, 480.240 200 C 484.580 200, 489.114 199.462, 490.316 198.805 C 491.517 198.147, 494.300 197.357, 496.500 197.048 L 500.500 196.486 500.398 185.993 C 500.310 177.005, 499.825 174.065, 497.017 165.500 C 494.843 158.869, 493.361 151.737, 492.619 144.331 C 492.004 138.189, 491.275 132.984, 491 132.765 C 490.725 132.547, 489.825 132.484, 489 132.626 M 235.500 151.662 C 226.150 158.526, 217.879 164.498, 217.121 164.933 C 213.690 166.901, 217.598 171.480, 235.389 186.339 C 245.161 194.500, 253.294 201.025, 253.462 200.839 C 253.631 200.652, 255.843 196.352, 258.378 191.283 C 262.380 183.279, 262.839 181.741, 261.862 179.597 C 260.360 176.300, 261.446 173.622, 264.012 174.293 C 265.105 174.579, 266 174.370, 266 173.828 C 266 172.690, 257.981 165, 256.794 165 C 255.009 165, 256.138 160.152, 258.250 158.748 L 260.500 157.253 258.250 153.031 C 257.012 150.710, 256.251 148.403, 256.559 147.905 C 257.667 146.112, 260.571 147.055, 262.242 149.750 L 263.947 152.500 263.973 150.088 C 263.988 148.761, 262.856 145.724, 261.458 143.338 C 257.368 136.360, 255.549 136.943, 235.500 151.662 M 178.448 144.635 C 178.091 146.211, 177.360 149.252, 176.823 151.393 C 176.114 154.216, 176.168 155.486, 177.020 156.012 C 177.665 156.411, 182.200 160.699, 187.097 165.540 L 196 174.343 196 181.055 C 196 187.626, 196.085 187.844, 200.033 191.410 C 203.621 194.652, 209.416 197.848, 217.027 200.780 C 218.536 201.361, 221.052 204.278, 223.273 208.020 C 226.979 214.264, 226.989 214.311, 225.961 220.744 C 224.479 230.022, 224.894 230.727, 232.294 231.492 C 235.707 231.844, 239.400 232.161, 240.500 232.194 C 245.134 232.336, 273 230.665, 273 230.245 C 273 229.326, 259.827 210.922, 256.024 206.528 C 253.874 204.044, 244.045 195.287, 234.181 187.068 C 218.498 174.002, 216.162 171.678, 215.578 168.563 C 215.075 165.883, 214.411 165, 212.900 165 C 209.810 165, 200.227 158.017, 192.484 150.123 C 184.154 141.631, 179.536 139.825, 178.448 144.635 M 414.329 146.458 C 409.982 148.348, 409.242 150.339, 409.768 158.718 C 410.137 164.577, 410.564 166.044, 412.042 166.513 C 413.042 166.831, 414.137 168.345, 414.473 169.879 C 414.958 172.086, 416.171 173.112, 420.293 174.798 C 425.735 177.025, 432.953 177.823, 436.693 176.612 C 438.114 176.151, 440.296 176.621, 442.893 177.945 L 446.899 179.989 453.700 174.308 C 457.440 171.184, 460.633 168.541, 460.795 168.435 C 460.957 168.330, 459.881 163.332, 458.403 157.328 L 455.715 146.414 451.791 146.257 C 449.632 146.171, 446.813 146.501, 445.526 146.990 C 444.053 147.550, 439.166 147.349, 432.343 146.448 C 419.204 144.713, 418.338 144.714, 414.329 146.458 M 400.760 161.414 C 395.015 168.734, 393.586 170, 391.069 170 C 389.446 170, 387.847 170.438, 387.516 170.974 C 387.185 171.510, 389.656 176.027, 393.008 181.012 L 399.102 190.075 406.032 181.787 C 413.314 173.079, 414.887 168.727, 411.109 167.739 C 409.585 167.340, 409.051 165.844, 408.359 160.036 L 407.500 152.828 400.760 161.414 M 372.299 156.101 C 371.575 156.825, 371.497 158.245, 372.070 160.244 C 372.550 161.916, 372.667 163.730, 372.331 164.273 C 371.502 165.615, 370.756 172.239, 370.616 179.500 C 370.521 184.412, 370.941 186.088, 372.933 188.743 L 375.366 191.986 385.433 191.365 C 390.970 191.024, 395.847 190.433, 396.271 190.051 C 396.695 189.670, 395.683 187.481, 394.021 185.188 C 392.359 182.894, 391 180.730, 391 180.378 C 391 180.027, 389.418 177.537, 387.484 174.845 C 385.551 172.154, 383.511 167.825, 382.952 165.226 C 381.725 159.522, 381.367 158.981, 377.346 156.750 C 373.621 154.684, 373.706 154.694, 372.299 156.101 M 264.203 157.256 C 263.630 157.946, 262.872 159.662, 262.519 161.069 C 261.956 163.313, 262.284 163.752, 265.194 164.645 C 267.186 165.256, 269.550 165.317, 271.110 164.797 C 273.257 164.081, 273.624 163.458, 273.220 161.215 C 272.952 159.722, 272.287 157.938, 271.743 157.250 C 270.464 155.632, 265.547 155.635, 264.203 157.256 M 168 163 C 162.822 167.726, 160.819 168.940, 158.153 168.967 C 155.693 168.991, 153.585 170.075, 150.192 173.062 C 147.654 175.296, 141.623 179.167, 136.789 181.663 C 126.924 186.758, 126.079 188.351, 131.138 192.311 C 133.732 194.341, 134.160 195.227, 133.608 197.426 C 133.241 198.889, 132.166 200.371, 131.220 200.720 C 128.622 201.678, 128.032 203.054, 128.015 208.193 C 128.004 211.569, 127.490 213.253, 126.184 214.193 C 125.185 214.912, 124.075 216.287, 123.716 217.250 C 123.013 219.134, 123.753 222, 124.942 222 C 127.082 222, 135.638 211.696, 138.994 205.076 C 143.656 195.878, 152.700 186.583, 157.928 185.614 C 159.814 185.265, 166.241 185.508, 172.212 186.156 C 180.126 187.014, 183.366 187.034, 184.170 186.230 C 184.845 185.555, 187.161 185.350, 190.137 185.703 L 195 186.279 195 180.806 C 195 176.040, 194.581 174.867, 191.750 171.719 C 188.306 167.890, 175.865 156.977, 175.007 157.033 C 174.728 157.052, 171.575 159.737, 168 163 M 265.053 159.900 C 264.274 161.356, 264.402 161.940, 265.600 162.400 C 267.949 163.301, 271 163.122, 271 162.082 C 271 158.020, 266.871 156.505, 265.053 159.900 M 361.575 165.935 C 359.074 168.099, 355.704 170.652, 354.085 171.609 C 352.467 172.565, 350.940 174.121, 350.693 175.067 C 350.445 176.014, 348.951 177.072, 347.371 177.420 C 345.792 177.768, 341.892 179.532, 338.704 181.340 L 332.909 184.628 338.704 190.744 L 344.500 196.861 358.750 194.706 C 370.335 192.954, 373 192.248, 373 190.931 C 373 190.039, 372.154 188.545, 371.120 187.609 C 368.619 185.345, 367.674 178.822, 369.139 173.932 C 370.448 169.561, 369.840 168.058, 367.536 169.970 C 365.405 171.739, 364.321 168.636, 365.750 164.853 C 366.342 163.284, 366.668 162, 366.474 162 C 366.280 162, 364.076 163.771, 361.575 165.935 M 462.462 168.045 C 459.733 170.819, 455.129 174.982, 452.231 177.295 C 445.620 182.570, 444.691 185.471, 446.199 196.135 L 447.312 204 451.271 204 C 454.349 204, 456.525 203.054, 461.049 199.750 C 469.799 193.361, 471 190.593, 471 176.814 C 471 166.274, 470.292 163, 468.012 163 C 467.689 163, 465.192 165.270, 462.462 168.045 M 556.500 174.905 C 554.300 175.929, 550.494 178.844, 548.042 181.383 C 544.845 184.694, 542.798 186, 540.806 186 C 539.279 186, 534.198 187.900, 529.515 190.223 C 521.598 194.149, 521 194.661, 521 197.512 C 521 199.526, 522.403 202.490, 525.087 206.146 L 529.174 211.713 534.337 208.935 C 537.177 207.407, 544.675 204.281, 551 201.989 C 557.325 199.697, 565.561 196.435, 569.302 194.739 L 576.105 191.656 569.614 185.078 C 566.045 181.460, 562.822 177.262, 562.454 175.750 C 561.663 172.509, 561.653 172.507, 556.500 174.905 M 410.751 178.227 C 408.811 180.577, 406.221 183.625, 404.996 185 C 399.377 191.308, 399.373 191.370, 404.149 197.949 L 408.500 203.942 417.785 203.971 C 426.311 203.998, 426.996 203.857, 426.167 202.250 C 425.670 201.287, 424.964 198.841, 424.598 196.813 C 424.014 193.575, 424.485 192.263, 428.460 186.063 L 432.987 179 429.454 179 C 427.510 179, 424.251 178.158, 422.210 177.128 C 415.081 173.532, 414.588 173.579, 410.751 178.227 M 435.425 178.765 C 434.834 179.169, 432.471 182.288, 430.175 185.695 C 425.750 192.261, 424.929 196.554, 427.161 201.453 C 428.277 203.903, 428.657 204, 437.180 204 C 445.838 204, 446.028 203.949, 445.570 201.750 C 444.337 195.822, 443.986 186.166, 444.914 183.725 C 445.842 181.285, 445.657 180.874, 443.021 179.511 C 439.855 177.873, 437.122 177.605, 435.425 178.765 M 259.726 191.513 C 257.127 196.745, 255 201.626, 255 202.358 C 255 203.091, 255.924 204.526, 257.053 205.548 C 258.182 206.570, 262.524 212.273, 266.701 218.222 C 270.878 224.171, 274.456 228.878, 274.652 228.681 C 274.848 228.485, 276.143 224.989, 277.530 220.912 C 279.687 214.570, 281.017 212.526, 286.748 206.750 C 290.432 203.037, 292.771 200, 291.945 200 C 291.119 200, 288.888 198.934, 286.986 197.631 C 283.853 195.484, 283.416 195.414, 282.326 196.881 C 281.218 198.372, 280.990 198.370, 279.457 196.861 C 278.542 195.959, 277.485 193.719, 277.110 191.883 C 276.547 189.129, 275.408 187.972, 270.607 185.272 C 267.406 183.473, 264.711 182, 264.619 182 C 264.527 182, 262.325 186.281, 259.726 191.513 M 325.250 186.662 C 322.913 187.490, 321 188.593, 321 189.115 C 321 189.636, 321.848 192.636, 322.884 195.782 C 323.920 198.927, 325.328 203.975, 326.012 207 C 328.574 218.321, 329.285 219.464, 333.980 219.812 C 337.100 220.043, 339.076 219.524, 341.590 217.812 C 344.844 215.597, 344.987 215.237, 344.993 209.218 C 344.997 205.763, 344.375 201.488, 343.612 199.718 C 341.944 195.852, 332.321 184.968, 330.670 185.079 C 330.027 185.122, 327.587 185.835, 325.250 186.662 M 148.744 193.820 C 144.487 198.229, 141.173 202.847, 139.250 207.047 C 137.377 211.139, 134.321 215.441, 130.898 218.803 C 125.961 223.654, 125.649 224.218, 127.250 225.413 C 128.339 226.227, 129 228.053, 129 230.249 C 129 232.329, 129.823 234.748, 131.004 236.139 L 133.008 238.500 135.321 235.712 L 137.635 232.925 140.318 235.036 C 144.417 238.259, 146.360 237.307, 147.165 231.681 C 147.937 226.280, 149.392 224, 152.065 224 C 153.067 224, 155.490 223.053, 157.451 221.896 C 159.412 220.739, 161.635 220.030, 162.391 220.320 C 163.147 220.610, 165.242 223.469, 167.046 226.674 C 168.850 229.878, 170.443 232.653, 170.586 232.839 C 170.830 233.158, 177.135 232.417, 209.957 228.209 C 222.803 226.562, 223.445 226.371, 224.107 223.992 C 225.467 219.107, 225.038 212.974, 223.143 210.210 C 222.122 208.719, 220.592 206.375, 219.743 205 C 218.771 203.425, 215.665 201.490, 211.350 199.770 C 207.353 198.178, 202.285 195.101, 199.183 192.384 L 193.866 187.728 174.575 187.386 L 155.285 187.045 148.744 193.820 M 314 190.563 C 312.075 191.291, 308.813 191.913, 306.750 191.944 C 302.229 192.012, 301.918 193.153, 306 194.694 C 308.635 195.689, 310.275 198.879, 308.250 199.071 C 307.837 199.110, 305.844 199.345, 303.819 199.592 C 300.556 199.991, 299.932 199.694, 298.329 196.980 C 297.334 195.296, 295.616 193.739, 294.510 193.521 C 289.466 192.525, 284 192.266, 284 193.023 C 284 194.868, 289.436 197.949, 294.573 199.015 C 298.974 199.929, 300.307 200.693, 301.491 202.982 C 302.602 205.131, 303.935 205.982, 307 206.500 C 311.962 207.338, 314 210.637, 314 217.828 L 314 222.756 320.691 221.353 C 324.372 220.582, 327.534 219.799, 327.719 219.614 C 327.905 219.429, 327.515 217.977, 326.854 216.389 C 326.193 214.800, 325.589 212.600, 325.512 211.500 C 325.212 207.208, 319.557 189.007, 318.558 189.119 C 317.976 189.185, 315.925 189.835, 314 190.563 M 392.250 191.802 C 389.363 191.969, 387 192.460, 387 192.895 C 387 193.330, 389.004 195.360, 391.453 197.407 C 393.902 199.453, 396.182 201.999, 396.520 203.064 C 397.019 204.634, 398.067 205, 402.067 205 C 407.416 205, 407.940 204.410, 405.236 201.439 C 404.266 200.372, 402.128 197.700, 400.486 195.500 C 397.589 191.620, 397.343 191.509, 392.250 191.802 M 375.667 193.667 C 375.300 194.033, 375 194.975, 375 195.759 C 375 196.543, 374.154 198.260, 373.121 199.574 C 370.923 202.367, 371.079 207.088, 373.770 219.292 C 375.636 227.757, 376.971 228.982, 382.768 227.552 C 384.271 227.182, 386.850 226.631, 388.500 226.328 C 390.150 226.025, 393.300 224.131, 395.500 222.119 C 400.527 217.522, 405.077 215, 408.345 215 C 411.931 215, 412.511 213.370, 410.362 209.329 C 408.540 205.904, 408.397 205.842, 403.726 206.452 L 398.951 207.075 391.900 200.038 C 385.376 193.527, 384.529 193, 380.591 193 C 378.249 193, 376.033 193.300, 375.667 193.667 M 568.889 196.450 C 564.703 198.315, 557.053 201.292, 551.889 203.064 C 538.494 207.662, 532.402 210.972, 525 217.675 C 521.425 220.913, 515.370 225.573, 511.544 228.031 L 504.587 232.500 522.037 232.775 L 539.486 233.049 557.493 225.841 C 567.397 221.877, 576.063 218.210, 576.750 217.694 C 578.129 216.658, 578.609 192.976, 577.250 193.029 C 576.837 193.045, 573.075 194.585, 568.889 196.450 M 358.500 195.685 C 343.641 198.069, 345.014 197.259, 345.667 203.257 C 345.981 206.141, 346.540 210.075, 346.910 212 C 347.577 215.478, 347.619 215.502, 353.428 215.804 C 358.874 216.087, 359.715 216.481, 365.694 221.554 C 369.225 224.549, 372.480 227, 372.928 227 C 373.775 227, 372.837 221.039, 371.040 215.007 C 369.228 208.921, 369.714 200.569, 372 198.500 C 373.100 197.505, 374 196.085, 374 195.345 C 374 193.677, 370.540 193.753, 358.500 195.685 M 510.798 194.907 C 507.112 195.233, 503.680 195.950, 503.172 196.500 C 501.524 198.283, 497.752 211.154, 498.639 211.967 C 499.546 212.798, 518.756 220, 520.066 220 C 520.804 220, 528 213.378, 528 212.698 C 528 212.513, 526.200 209.949, 524 207 C 520.967 202.935, 520 200.715, 520 197.819 C 520 195.347, 519.559 194.055, 518.750 194.157 C 518.063 194.244, 514.484 194.581, 510.798 194.907 M 461.210 201.212 L 455.921 205.308 458.710 208.224 C 460.245 209.828, 462.962 212.045, 464.750 213.152 C 467.861 215.077, 468 215.433, 468 221.475 C 468 226.162, 468.386 227.934, 469.500 228.362 C 470.524 228.754, 471 228.305, 471 226.947 C 471 224.696, 479.085 219.039, 482.446 218.939 C 483.576 218.905, 487.164 217.217, 490.419 215.189 C 495.957 211.738, 496.481 211.075, 498.549 204.911 L 500.760 198.323 497.538 198.518 C 495.766 198.626, 492.239 199.507, 489.701 200.476 C 483.269 202.933, 472.990 202.279, 469.718 199.205 C 468.427 197.992, 467.175 197.026, 466.936 197.058 C 466.696 197.090, 464.120 198.959, 461.210 201.212 M 287.767 207.750 L 281.088 214.500 275.150 232 C 271.883 241.625, 266.914 256.025, 264.106 264 C 261.298 271.975, 259 278.613, 259 278.750 C 259 278.887, 263.003 279, 267.896 279 C 276.719 279, 276.817 278.973, 279.707 275.681 C 282.737 272.230, 284.978 266.733, 289.568 251.500 C 291.060 246.550, 292.816 241.917, 293.472 241.204 C 294.839 239.717, 304.229 237.029, 308.119 237.012 C 310.366 237.002, 310.826 236.467, 311.358 233.250 C 312.351 227.244, 312.094 212.045, 310.965 209.934 C 310.395 208.870, 309.067 208, 308.012 208 C 304.834 208, 301.287 205.925, 300.132 203.390 C 298.245 199.250, 295.071 200.369, 287.767 207.750 M 413.180 211.137 C 414.918 213.963, 417.295 219.701, 418.462 223.887 L 420.584 231.500 436.042 231.406 C 448.309 231.331, 452.945 230.898, 458.500 229.307 L 465.500 227.302 465.798 221.151 C 465.961 217.768, 465.673 215, 465.156 215 C 464.639 215, 461.964 212.975, 459.211 210.500 L 454.206 206 432.112 206 L 410.018 206 413.180 211.137 M 490.700 216.503 C 487.510 218.426, 484.174 220, 483.288 220 C 482.401 220, 479.707 221.154, 477.300 222.564 C 474.139 224.417, 472.760 225.952, 472.331 228.095 C 472.005 229.726, 470.672 231.900, 469.369 232.924 C 468.066 233.949, 467 235.327, 467 235.986 C 467 237.347, 470.532 242.129, 471.117 241.560 C 471.328 241.355, 472.861 240.976, 474.525 240.717 C 476.188 240.458, 479.233 239.103, 481.291 237.707 C 484.116 235.789, 486.926 234.994, 492.766 234.457 C 500.076 233.785, 501.004 233.411, 509.698 227.623 L 518.895 221.500 515.698 220.132 C 513.939 219.380, 508.900 217.470, 504.500 215.887 C 500.100 214.305, 496.500 213.009, 496.500 213.008 C 496.500 213.006, 493.890 214.579, 490.700 216.503 M 409.448 215.975 C 405.107 216.625, 400.039 219.688, 396 224.104 C 393.458 226.883, 391.037 227.608, 380.806 228.651 L 375.112 229.232 373.003 238.217 C 370.976 246.852, 370.964 247.255, 372.697 248.569 C 373.689 249.321, 375.114 249.951, 375.865 249.968 C 376.615 249.986, 380.665 253.332, 384.865 257.404 C 391.927 264.251, 404.325 271.962, 405.378 270.162 C 405.591 269.798, 406.068 268.084, 406.439 266.354 C 407.431 261.724, 410.232 259.728, 416.462 259.212 C 421.069 258.830, 421.938 258.438, 422.196 256.631 C 422.423 255.037, 423.320 254.421, 425.750 254.187 C 427.538 254.014, 428.997 253.564, 428.994 253.187 C 428.971 250.279, 426.375 244.357, 423.876 241.512 C 421.661 238.989, 420.093 235.239, 417.966 227.374 C 416.374 221.487, 414.717 216.378, 414.285 216.020 C 413.853 215.661, 411.677 215.641, 409.448 215.975 M 342.139 218.961 C 340.361 220.497, 338.388 220.997, 334.139 220.987 C 326.442 220.970, 314.146 223.924, 313.567 225.930 C 313.113 227.504, 312.709 233.428, 312.899 235.724 C 312.954 236.398, 314.462 237.688, 316.250 238.591 C 320.713 240.847, 324 244.012, 324 246.053 C 324 247.017, 325.350 248.316, 327.106 249.044 C 329.213 249.916, 330.781 251.646, 331.977 254.415 C 332.947 256.662, 334.633 259.297, 335.723 260.272 C 337.602 261.951, 338.092 261.957, 345.103 260.380 C 360.649 256.883, 359.770 257.249, 359.244 254.494 C 358.819 252.274, 359.373 251.723, 364.133 249.624 L 369.500 247.257 371.586 238.446 L 373.672 229.635 366.147 223.655 C 358.780 217.801, 358.473 217.667, 351.561 217.299 C 345.561 216.979, 344.145 217.229, 342.139 218.961 M 556.532 227.551 L 538.565 235 520.345 235 L 502.126 235 502.642 238.750 C 504.117 249.461, 506.286 259.568, 508.159 264.464 C 509.915 269.052, 510.929 270.272, 514.378 271.946 C 516.645 273.046, 522.719 278.185, 527.875 283.367 L 537.250 292.789 541.275 289.144 C 549.515 281.683, 550 281.079, 550 278.282 C 550 276.731, 551.560 273.157, 553.484 270.300 C 555.946 266.644, 557.156 263.526, 557.610 259.665 C 558.220 254.473, 558.640 253.816, 566.126 246.375 C 573.436 239.107, 574 238.250, 574 234.396 C 574 232.112, 574.675 228.629, 575.500 226.654 C 577.328 222.280, 577.415 219.983, 575.750 220.051 C 575.063 220.079, 566.415 223.454, 556.532 227.551 M 205.500 230.076 C 170.499 234.725, 172.477 234.288, 172.691 237.325 C 172.795 238.815, 174.258 242.074, 175.941 244.567 C 177.677 247.140, 179.032 250.484, 179.073 252.300 C 179.113 254.060, 179.901 256.654, 180.823 258.065 C 181.745 259.476, 183.511 262.176, 184.746 264.065 C 187.825 268.773, 187.661 272.359, 184.250 274.917 C 179.563 278.430, 179 279.034, 179 280.539 C 179 282.413, 183.617 282.418, 186.997 280.547 C 188.747 279.579, 189.868 279.475, 190.742 280.201 C 191.540 280.863, 195.033 280.984, 200.408 280.536 C 208.531 279.860, 208.869 279.731, 210.054 276.870 C 210.729 275.240, 212.456 273.295, 213.891 272.548 C 215.326 271.801, 217.625 269.980, 219 268.500 C 221.689 265.607, 226.070 263, 228.244 263 C 228.982 263, 232.127 265.137, 235.232 267.750 C 241.722 273.210, 255.539 279.861, 257.116 278.284 C 257.671 277.729, 261.602 267.201, 265.852 254.888 C 273.134 233.793, 273.463 232.479, 271.540 232.139 C 270.418 231.940, 262.750 232.311, 254.500 232.963 C 243.290 233.849, 237.751 233.865, 232.579 233.028 C 224.736 231.758, 224 231.450, 224 229.441 C 224 227.686, 223.317 227.710, 205.500 230.076 M 458.500 230.625 C 451.870 232.451, 438.345 233.982, 428.750 233.992 C 423.710 233.997, 421 234.391, 421 235.118 C 421 235.733, 422.406 237.838, 424.125 239.795 C 427.716 243.885, 430 248.812, 430 252.468 C 430 254.594, 429.536 255, 427.107 255 C 423.891 255, 422.050 257.698, 424.598 258.676 C 428.290 260.093, 440.333 258.088, 445.916 255.127 C 448.987 253.499, 455.144 250.381, 459.599 248.198 C 468.273 243.949, 469.571 242.502, 467.389 239.517 C 465.463 236.884, 465.653 234.624, 467.976 232.521 C 471.959 228.917, 467.756 228.076, 458.500 230.625 M 491.500 236.144 C 486.386 236.795, 483.422 237.800, 480.500 239.872 C 478.300 241.432, 475.984 242.527, 475.354 242.305 C 473.680 241.717, 480.481 265.029, 484.039 272.077 C 485.683 275.335, 487.432 278, 487.925 278 C 488.417 278, 491.673 276.643, 495.160 274.985 C 498.647 273.327, 503.212 271.691, 505.305 271.349 C 508.278 270.863, 508.971 270.374, 508.477 269.113 C 505.509 261.544, 502.956 252.309, 502.474 247.403 C 501.490 237.373, 500.953 234.995, 499.705 235.126 C 499.042 235.196, 495.350 235.654, 491.500 236.144 M 301.144 239.573 C 298.198 240.365, 295.395 241.256, 294.916 241.552 C 294.437 241.848, 292.289 247.582, 290.142 254.295 C 284.917 270.632, 283.459 273.921, 279.737 277.767 C 276.728 280.876, 276.639 281.191, 277.900 284.267 C 278.629 286.045, 279.842 289.704, 280.595 292.399 C 281.348 295.093, 282.172 297.505, 282.426 297.759 C 282.680 298.013, 289.008 293.458, 296.488 287.637 C 303.968 281.815, 311.552 276.358, 313.341 275.508 C 315.131 274.659, 320.194 270.691, 324.594 266.690 L 332.594 259.415 330.803 255.307 C 329.568 252.476, 328.102 250.883, 326.086 250.180 C 324.173 249.513, 323.046 248.353, 322.830 246.830 C 322.383 243.673, 313.810 237.978, 309.637 238.066 C 307.912 238.102, 304.090 238.780, 301.144 239.573 M 469 244.046 C 469 244.621, 465.175 246.850, 460.500 249 C 450.471 253.611, 450.112 254.622, 455.382 263.374 C 457.242 266.462, 459.769 271.467, 460.998 274.495 C 462.728 278.757, 463.714 279.998, 465.366 279.992 C 468.820 279.980, 484.239 278.095, 484.706 277.627 C 484.942 277.392, 484.031 275.017, 482.683 272.349 C 480.697 268.422, 477.064 257.660, 473.366 244.750 C 472.834 242.892, 469 242.274, 469 244.046 M 364.250 250.973 C 361.913 252.034, 360 253.191, 360 253.543 C 360 253.896, 360.900 255.329, 362 256.727 C 363.100 258.126, 364 260.048, 364 261 C 364 261.952, 364.933 263.916, 366.073 265.365 C 367.954 267.756, 368.783 268, 375.039 268 C 381.313 268, 389 265.816, 389 264.033 C 389 262.901, 377.490 252.450, 374.346 250.728 C 370.401 248.567, 369.503 248.589, 364.250 250.973 M 448.585 255.863 C 448.291 256.337, 445.902 257.304, 443.276 258.010 C 437.054 259.684, 436.492 260.295, 438.439 263.267 C 439.333 264.631, 440.337 268.054, 440.671 270.874 C 441.069 274.233, 441.748 276, 442.639 276 C 443.388 276, 444 275.382, 444 274.627 C 444 273.128, 447.245 265.072, 449.552 260.846 C 450.348 259.386, 451 257.473, 451 256.596 C 451 254.893, 449.471 254.429, 448.585 255.863 M 349.504 260.701 C 343.457 262.015, 338.082 263.518, 337.560 264.040 C 336.961 264.639, 337.394 265.719, 338.732 266.965 C 342.617 270.585, 346 275.663, 346 277.876 C 346 279.079, 346.788 280.341, 347.750 280.680 C 350.773 281.747, 354 285.261, 354 287.486 C 354 290.308, 357.418 293.866, 361.892 295.699 C 363.876 296.513, 367.188 298.804, 369.250 300.792 L 373 304.406 373 287.203 C 373 270.312, 372.961 270, 370.868 270 C 368.294 270, 362 263.604, 362 260.988 C 362 259.959, 361.663 258.936, 361.250 258.714 C 360.837 258.492, 355.552 259.386, 349.504 260.701 M 415.500 260.491 C 414.950 260.675, 413.279 261.094, 411.787 261.422 C 409.685 261.885, 408.803 262.925, 407.869 266.042 C 407.144 268.463, 407.029 270.385, 407.582 270.870 C 408.087 271.314, 411.246 272.649, 414.603 273.838 C 419.265 275.490, 423.010 276, 430.469 276 C 440.107 276, 440.225 275.971, 439.630 273.750 C 439.299 272.512, 439.021 270.331, 439.014 268.903 C 439.006 267.475, 438.100 265.268, 437 264 C 435.900 262.732, 435 261.313, 435 260.847 C 435 260.061, 417.733 259.746, 415.500 260.491 M 328.946 264.591 C 325.115 268.584, 314.423 277, 313.181 277 C 312.743 277, 305.662 282.202, 297.444 288.560 C 284.429 298.630, 282.546 300.444, 282.833 302.634 C 283.014 304.017, 288.254 314.317, 294.477 325.524 C 310.942 355.174, 313.096 358, 319.224 358 C 322.455 358, 323.757 357.298, 327.317 353.635 C 330.525 350.335, 333.015 348.853, 337.530 347.561 C 343.890 345.741, 345.667 344.151, 349.255 337.070 C 350.490 334.634, 352.962 331.084, 354.750 329.181 C 357.457 326.299, 358 324.941, 358 321.060 C 358 316.177, 359.259 314, 362.084 314 C 363.762 314, 371 306.786, 371 305.113 C 371 303.723, 363.154 297, 361.532 297 C 359.093 297, 353 290.981, 353 288.571 C 353 286.331, 349.827 282.761, 346.939 281.753 C 346.081 281.453, 344.838 279.474, 344.178 277.354 C 342.925 273.336, 338.858 268, 337.048 268 C 336.472 268, 336 266.698, 336 265.107 C 336 262.749, 334.558 261, 332.614 261 C 332.492 261, 330.842 262.616, 328.946 264.591 M 385.141 268.022 C 382.743 269.110, 379.481 270, 377.891 270 L 375 270 375 286.934 L 375 303.867 385.250 304.184 C 390.887 304.358, 395.715 304.360, 395.979 304.188 C 396.242 304.017, 396.330 298.658, 396.175 292.281 L 395.893 280.685 400.076 276.422 L 404.260 272.160 398.158 269.080 C 390.998 265.465, 390.809 265.450, 385.141 268.022 M 401.638 276.860 L 397 281.569 397 289.225 C 397 293.436, 397.433 297.149, 397.962 297.476 C 398.578 297.857, 398.578 298.981, 397.962 300.601 C 395.571 306.890, 397.717 307.470, 416.230 305.541 C 424.557 304.673, 431.481 303.853, 431.616 303.717 C 433.517 301.816, 439.459 290.196, 440.676 286 C 441.554 282.975, 442.483 279.938, 442.743 279.250 C 443.101 278.299, 440.691 278, 432.675 278 C 423.501 278, 421.110 277.621, 414.206 275.076 L 406.275 272.152 401.638 276.860 " stroke="none" fill="black" fill-rule="evenodd" xmlns="http://www.w3.org/2000/svg"/><path stroke="black" stroke-width="1" d=" M206 60.49 l-6.849999999999994 3.979999999999997"/></svg>